<svg xmlns="http://www.w3.org/2000/svg" viewBox="0 0 32 32" fill="none">
  <!-- 绿色书本 -->
  <rect x="4" y="6" width="8" height="20" rx="1" fill="#22c55e" opacity="0.9"/>
  <rect x="4" y="6" width="8" height="20" rx="1" fill="none" stroke="#16a34a" stroke-width="0.5"/>
  <line x1="6" y1="10" x2="10" y2="10" stroke="#16a34a" stroke-width="0.5"/>
  <line x1="6" y1="14" x2="10" y2="14" stroke="#16a34a" stroke-width="0.5"/>
  <line x1="6" y1="18" x2="10" y2="18" stroke="#16a34a" stroke-width="0.5"/>
  
  <!-- 红色书本 -->
  <rect x="12" y="8" width="8" height="20" rx="1" fill="#ef4444" opacity="0.9"/>
  <rect x="12" y="8" width="8" height="20" rx="1" fill="none" stroke="#dc2626" stroke-width="0.5"/>
  <line x1="14" y1="12" x2="18" y2="12" stroke="#dc2626" stroke-width="0.5"/>
  <line x1="14" y1="16" x2="18" y2="16" stroke="#dc2626" stroke-width="0.5"/>
  <line x1="14" y1="20" x2="18" y2="20" stroke="#dc2626" stroke-width="0.5"/>
  
  <!-- 蓝色书本 -->
  <rect x="20" y="4" width="8" height="20" rx="1" fill="#3b82f6" opacity="0.9"/>
  <rect x="20" y="4" width="8" height="20" rx="1" fill="none" stroke="#2563eb" stroke-width="0.5"/>
  <line x1="22" y1="8" x2="26" y2="8" stroke="#2563eb" stroke-width="0.5"/>
  <line x1="22" y1="12" x2="26" y2="12" stroke="#2563eb" stroke-width="0.5"/>
  <line x1="22" y1="16" x2="26" y2="16" stroke="#2563eb" stroke-width="0.5"/>
</svg>

