<svg width="120" height="120" viewBox="0 0 120 120" fill="none" xmlns="http://www.w3.org/2000/svg">
  <!-- 背景圆形 -->
  <circle cx="60" cy="60" r="55" fill="url(#gradient)" stroke="#14b8a6" stroke-width="2"/>
  
  <!-- 渐变定义 -->
  <defs>
    <linearGradient id="gradient" x1="0%" y1="0%" x2="100%" y2="100%">
      <stop offset="0%" style="stop-color:#14b8a6;stop-opacity:1" />
      <stop offset="100%" style="stop-color:#0d9488;stop-opacity:1" />
    </linearGradient>
  </defs>
  
  <!-- 书本图标 -->
  <path d="M35 25 L35 85 L50 80 L60 82 L70 80 L85 85 L85 25 L70 30 L60 28 L50 30 Z" fill="white" opacity="0.9"/>
  <path d="M50 30 L50 80 M70 30 L70 80" stroke="#14b8a6" stroke-width="2" stroke-linecap="round"/>
  
  <!-- 星星装饰 -->
  <path d="M75 20 L76.5 24 L81 24.5 L77.5 27.5 L78.5 32 L75 29.5 L71.5 32 L72.5 27.5 L69 24.5 L73.5 24 Z" fill="#fbbf24" opacity="0.9"/>
  <path d="M45 20 L46.5 24 L51 24.5 L47.5 27.5 L48.5 32 L45 29.5 L41.5 32 L42.5 27.5 L39 24.5 L43.5 24 Z" fill="#fbbf24" opacity="0.9"/>
  
  <!-- 文字装饰线 -->
  <path d="M30 50 L25 50 M95 50 L100 50" stroke="white" stroke-width="2" stroke-linecap="round" opacity="0.6"/>
</svg>

